<?xml version="1.0" encoding="utf-8"?>
<svg width="1920.004" height="774.26" viewBox="0 0 1920.004 774.26" fill="none" xmlns="http://www.w3.org/2000/svg">
  <defs>
    <clipPath id="clip_path_1">
      <rect width="1920.004" height="774.26" />
    </clipPath>
  </defs>
  <g clip-path="url(#clip_path_1)" transform="matrix(-1 -0 0 -1 1920.004 774.26)">
    <path d="M0 467.165C0 467.165 45.7333 420.448 45.7333 420.448C91.4667 373.732 182.667 280.299 274.667 249.057C365.733 218.983 457.333 248.181 548 295.774C640 341.614 732 405.849 822.667 373.732C914.267 341.614 1005.33 218.983 1097.33 186.866C1188.53 154.748 1280 218.983 1372 295.774C1462.8 373.732 1554.67 467.165 1645.33 513.881C1737.2 560.598 1828 560.598 1874.67 560.598C1874.67 560.598 1920 560.598 1920 560.598L1920 0C1920 0 1874.27 0 1874.27 0C1828.53 0 1737.33 0 1645.33 0C1554.27 0 1462.67 0 1372 0C1280 0 1188 0 1097.33 0C1005.73 0 914.667 0 822.667 0C731.467 0 640 0 548 0C457.2 0 365.333 0 274.667 0C182.8 0 92 0 45.3333 0C45.3333 0 0 0 0 0L0 467.165Z" fill="#FFFFFF" fill-rule="evenodd" transform="translate(0 0)" />
  </g>
</svg>