<?xml version="1.0" encoding="utf-8"?>
<svg width="1941.37" height="320.001" viewBox="0 0 1941.37 320.001" fill="none" xmlns="http://www.w3.org/2000/svg">
  <g transform="matrix(-1 -0 0 -1 1941.37 320.001)">
    <path d="M0 134.025C0 134.025 64.7123 139.325 64.7123 139.325C129.425 145.025 258.849 155.025 388.274 182.025C517.698 209.025 647.123 251.025 776.547 219.325C905.972 187.025 1035.4 81.0247 1164.82 32.7247C1294.25 -14.9753 1423.67 -4.97531 1553.09 27.3247C1682.52 59.0247 1811.94 113.025 1876.66 139.325C1876.66 139.325 1941.37 166.025 1941.37 166.025L1941.37 294.025C1941.37 294.025 1876.66 294.025 1876.66 294.025C1811.94 294.025 1682.52 294.025 1553.09 294.025C1423.67 294.025 1294.25 294.025 1164.82 294.025C1035.4 294.025 905.972 294.025 776.547 294.025C647.123 294.025 517.698 294.025 388.274 294.025C258.849 294.025 129.425 294.025 64.7123 294.025C64.7123 294.025 0 294.025 0 294.025L0 134.025Z" fill="#FFFFFF" fill-rule="evenodd" transform="translate(0 25.975)" />
  </g>
</svg>